<svg width="70" height="70" viewBox="0 0 70 70" fill="none" xmlns="http://www.w3.org/2000/svg" xmlns:xlink="http://www.w3.org/1999/xlink">
<path d="M49.355,39.25L35,52.5L20.646,39.25C12.65,44.364 7.292,53.592 7.292,64.167L62.708,64.167C62.708,53.592 57.351,44.364 49.355,39.25Z" fill="#FFFFFF"/>
<path d="M35,40.833C40.177,40.833 44.813,38.573 48.017,35C50.795,31.903 52.5,27.822 52.5,23.333C52.5,13.669 44.664,5.833 35,5.833C25.336,5.833 17.5,13.669 17.5,23.333C17.5,27.822 19.205,31.903 21.983,35C25.187,38.573 29.823,40.833 35,40.833Z" fill="#FFFFFF"/>
</svg>
