<svg width="70" height="70" viewBox="0 0 70 70" fill="none" xmlns="http://www.w3.org/2000/svg" xmlns:xlink="http://www.w3.org/1999/xlink">
<path d="M61.248,32.086L23.336,32.086L23.336,37.92L61.248,37.92L61.248,32.086Z" fill="#FFFFFF"/>
<path d="M61.248,17.493L23.336,17.493L23.336,23.326L61.248,23.326L61.248,17.493Z" fill="#FFFFFF"/>
<path d="M61.248,46.678L23.336,46.678L23.336,52.512L61.248,52.512L61.248,46.678Z" fill="#FFFFFF"/>
<path d="M14.583,17.5L8.75,17.5L8.75,23.333L14.583,23.333L14.583,17.5Z" fill="#FFFFFF"/>
<path d="M14.583,32.092L8.75,32.092L8.75,37.925L14.583,37.925L14.583,32.092Z" fill="#FFFFFF"/>
<path d="M14.583,46.686L8.75,46.686L8.75,52.519L14.583,52.519L14.583,46.686Z" fill="#FFFFFF"/>
</svg>
