<svg width="42" height="40" viewBox="0 0 42 40" fill="none" xmlns="http://www.w3.org/2000/svg" xmlns:xlink="http://www.w3.org/1999/xlink">
<path d="M1.667,20L-0.122,19.106C-0.404,19.669 -0.404,20.331 -0.122,20.894L1.667,20ZM38.333,20L40.122,20.894C40.404,20.331 40.404,19.669 40.122,19.106L38.333,20ZM1.667,20C3.456,20.894 3.455,20.895 3.455,20.896C3.455,20.896 3.455,20.896 3.455,20.896C3.454,20.897 3.454,20.897 3.454,20.897C3.454,20.897 3.455,20.896 3.455,20.895C3.457,20.892 3.46,20.885 3.465,20.876C3.474,20.858 3.49,20.827 3.512,20.786C3.556,20.702 3.625,20.574 3.719,20.408C3.907,20.074 4.192,19.589 4.571,19.002C5.331,17.824 6.457,16.259 7.917,14.701C10.874,11.547 14.966,8.667 20,8.667L20,4.667C13.368,4.667 8.292,8.453 4.999,11.965C3.335,13.741 2.065,15.509 1.211,16.832C0.782,17.495 0.455,18.051 0.233,18.447C0.121,18.645 0.036,18.803 -0.023,18.915C-0.053,18.971 -0.076,19.015 -0.093,19.047C-0.101,19.063 -0.107,19.076 -0.112,19.086C-0.115,19.091 -0.117,19.095 -0.118,19.098C-0.119,19.1 -0.12,19.101 -0.121,19.103C-0.121,19.103 -0.121,19.104 -0.121,19.104C-0.122,19.105 -0.122,19.106 1.667,20ZM20,8.667C25.034,8.667 29.126,11.547 32.083,14.701C33.543,16.259 34.669,17.824 35.429,19.002C35.808,19.589 36.093,20.074 36.281,20.408C36.375,20.574 36.444,20.702 36.488,20.786C36.51,20.827 36.526,20.858 36.535,20.876C36.54,20.885 36.543,20.892 36.545,20.895C36.545,20.896 36.546,20.897 36.546,20.897C36.546,20.897 36.546,20.897 36.545,20.896C36.545,20.896 36.545,20.896 36.545,20.896C36.545,20.895 36.544,20.894 38.333,20C40.122,19.106 40.122,19.105 40.121,19.104C40.121,19.104 40.121,19.103 40.121,19.103C40.12,19.101 40.119,19.1 40.118,19.098C40.117,19.095 40.115,19.091 40.112,19.086C40.107,19.076 40.101,19.063 40.092,19.047C40.076,19.015 40.053,18.971 40.023,18.915C39.964,18.803 39.879,18.645 39.767,18.447C39.545,18.051 39.218,17.495 38.789,16.832C37.935,15.509 36.665,13.741 35.001,11.965C31.708,8.453 26.632,4.667 20,4.667L20,8.667ZM38.333,20C36.544,19.106 36.545,19.105 36.545,19.105C36.545,19.104 36.545,19.104 36.545,19.104C36.546,19.103 36.546,19.103 36.546,19.103C36.546,19.103 36.545,19.104 36.545,19.105C36.543,19.108 36.54,19.115 36.535,19.124C36.526,19.142 36.51,19.173 36.488,19.214C36.444,19.298 36.375,19.426 36.281,19.592C36.093,19.926 35.808,20.411 35.429,20.998C34.669,22.176 33.543,23.741 32.083,25.299C29.126,28.453 25.034,31.333 20,31.333L20,35.333C26.632,35.333 31.708,31.547 35.001,28.034C36.665,26.259 37.935,24.491 38.789,23.168C39.218,22.505 39.545,21.949 39.767,21.553C39.879,21.355 39.964,21.197 40.023,21.085C40.053,21.029 40.076,20.985 40.092,20.953C40.101,20.937 40.107,20.924 40.112,20.914C40.115,20.909 40.117,20.905 40.118,20.902C40.119,20.9 40.12,20.899 40.121,20.897C40.121,20.897 40.121,20.896 40.121,20.896C40.122,20.895 40.122,20.894 38.333,20ZM20,31.333C14.966,31.333 10.874,28.453 7.917,25.299C6.457,23.741 5.331,22.176 4.571,20.998C4.192,20.411 3.907,19.926 3.719,19.592C3.625,19.426 3.556,19.298 3.512,19.214C3.49,19.173 3.474,19.142 3.465,19.124C3.46,19.115 3.457,19.108 3.455,19.105C3.455,19.104 3.454,19.103 3.454,19.103C3.454,19.103 3.454,19.103 3.455,19.104C3.455,19.104 3.455,19.104 3.455,19.105C3.455,19.105 3.456,19.106 1.667,20C-0.122,20.894 -0.122,20.895 -0.121,20.896C-0.121,20.896 -0.121,20.897 -0.121,20.897C-0.12,20.899 -0.119,20.9 -0.118,20.902C-0.117,20.905 -0.115,20.909 -0.112,20.914C-0.107,20.924 -0.101,20.937 -0.093,20.953C-0.076,20.985 -0.053,21.029 -0.023,21.085C0.036,21.197 0.121,21.355 0.233,21.553C0.455,21.949 0.782,22.505 1.211,23.168C2.065,24.491 3.335,26.259 4.999,28.034C8.292,31.547 13.368,35.333 20,35.333L20,31.333Z" fill="#A8A8A9"/>
<path d="M23,20C23,21.657 21.657,23 20,23L20,27C23.866,27 27,23.866 27,20L23,20ZM20,23C18.343,23 17,21.657 17,20L13,20C13,23.866 16.134,27 20,27L20,23ZM17,20C17,18.343 18.343,17 20,17L20,13C16.134,13 13,16.134 13,20L17,20ZM20,17C21.657,17 23,18.343 23,20L27,20C27,16.134 23.866,13 20,13L20,17Z" fill="#A8A8A9"/>
</svg>
