<svg width="32" height="40" viewBox="0 0 32 40" fill="none" xmlns="http://www.w3.org/2000/svg" xmlns:xlink="http://www.w3.org/1999/xlink">
<path d="M8.323,13.359L23.677,13.359C24.731,13.359 25.641,13.359 26.39,13.417C27.181,13.479 27.967,13.615 28.724,13.983C29.853,14.532 30.771,15.408 31.346,16.485C31.732,17.207 31.874,17.957 31.939,18.712C32,19.427 32,20.295 32,21.3L32,30.226C32,31.232 32,32.1 31.939,32.815C31.874,33.569 31.732,34.32 31.346,35.042C30.771,36.119 29.853,36.995 28.724,37.544C27.967,37.912 27.181,38.048 26.39,38.11C25.641,38.168 24.731,38.168 23.677,38.168L8.323,38.168C7.269,38.168 6.359,38.168 5.61,38.11C4.819,38.048 4.033,37.912 3.276,37.544C2.147,36.995 1.229,36.119 0.654,35.042C0.268,34.32 0.126,33.569 0.061,32.815C0,32.1 0,31.232 0,30.226L0,21.3C0,20.294 0,19.427 0.061,18.712C0.126,17.957 0.268,17.207 0.654,16.485C1.229,15.408 2.147,14.532 3.276,13.983C4.033,13.615 4.819,13.479 5.61,13.417C6.359,13.359 7.269,13.359 8.323,13.359ZM16,24.809C14.895,24.809 14,25.664 14,26.718L14,28.626C14,29.68 14.895,30.534 16,30.534C17.105,30.534 18,29.68 18,28.626L18,26.718C18,25.664 17.105,24.809 16,24.809Z" clip-rule="evenodd" fill-rule="evenodd" fill="#D38609"/>
<path d="M8,7.634C8,3.418 11.582,0 16,0C20.418,0 24,3.418 24,7.634L24,13.359L20,13.359L20,7.634C20,5.526 18.209,3.817 16,3.817C13.791,3.817 12,5.526 12,7.634L12,13.359L8,13.359L8,7.634Z" clip-rule="evenodd" fill-rule="evenodd" fill="#D38609"/>
</svg>
