<svg width="28" height="32" viewBox="0 0 28 32" fill="none" xmlns="http://www.w3.org/2000/svg" xmlns:xlink="http://www.w3.org/1999/xlink">
<path d="M14,0C6.268,0 0,7.163 0,16C0,24.837 6.268,32 14,32C21.732,32 28,24.837 28,16C28,7.163 21.732,0 14,0ZM14,30.4C7.053,30.4 1.4,23.94 1.4,16C1.4,8.06 7.053,1.6 14,1.6C20.948,1.6 26.6,8.06 26.6,16C26.6,23.94 20.948,30.4 14,30.4Z" fill="#D9D9D9"/>
<path d="M7.976,22.556L14,16.532L20.024,22.556L20.556,22.024L14.532,16L20.556,9.976L20.024,9.444L14,15.468L7.976,9.444L7.444,9.976L13.468,16L7.444,22.024L7.976,22.556Z" transform="rotate(-97.628 14 16)" fill="#D9D9D9"/>
</svg>
