<svg width="40" height="40" viewBox="0 0 40 40" fill="none" xmlns="http://www.w3.org/2000/svg" xmlns:xlink="http://www.w3.org/1999/xlink">
<path d="M20,0C8.954,0 0,8.954 0,20C0,31.046 8.954,40 20,40C31.046,40 40,31.046 40,20C40,8.954 31.046,0 20,0ZM20,38C10.075,38 2,29.925 2,20C2,10.075 10.075,2 20,2C29.925,2 38,10.075 38,20C38,29.925 29.925,38 20,38Z" fill="#D9D9D9"/>
<path d="M11.986,28.722L20,20.708L28.014,28.722L28.722,28.014L20.708,20L28.722,11.986L28.014,11.278L20,19.292L11.986,11.278L11.278,11.986L19.292,20L11.278,28.014L11.986,28.722Z" transform="rotate(-90 20 20)" fill="#D9D9D9"/>
</svg>
