<svg width="32" height="40" viewBox="0 0 32 40" fill="none" xmlns="http://www.w3.org/2000/svg" xmlns:xlink="http://www.w3.org/1999/xlink">
<path d="M8.323,14L23.677,14C24.731,14 25.641,14 26.39,14.061C27.181,14.126 27.967,14.268 28.724,14.654C29.853,15.229 30.771,16.147 31.346,17.276C31.732,18.033 31.874,18.819 31.939,19.61C32,20.359 32,21.269 32,22.323L32,31.677C32,32.731 32,33.641 31.939,34.39C31.874,35.181 31.732,35.967 31.346,36.724C30.771,37.853 29.853,38.771 28.724,39.346C27.967,39.732 27.181,39.874 26.39,39.939C25.641,40 24.731,40 23.677,40L8.323,40C7.269,40 6.359,40 5.61,39.939C4.819,39.874 4.033,39.732 3.276,39.346C2.147,38.771 1.229,37.853 0.654,36.724C0.268,35.967 0.126,35.181 0.061,34.39C0,33.641 0,32.731 0,31.677L0,22.323C0,21.269 0,20.359 0.061,19.61C0.126,18.819 0.268,18.033 0.654,17.276C1.229,16.147 2.147,15.229 3.276,14.654C4.033,14.268 4.819,14.126 5.61,14.061C6.359,14 7.269,14 8.323,14ZM16,26C14.895,26 14,26.895 14,28L14,30C14,31.105 14.895,32 16,32C17.105,32 18,31.105 18,30L18,28C18,26.895 17.105,26 16,26Z" clip-rule="evenodd" fill-rule="evenodd" fill="#D38609"/>
<path d="M8,8C8,3.582 11.582,0 16,0C20.418,0 24,3.582 24,8L24,14L20,14L20,8C20,5.791 18.209,4 16,4C13.791,4 12,5.791 12,8L12,14L8,14L8,8Z" clip-rule="evenodd" fill-rule="evenodd" fill="#D38609"/>
</svg>
