<svg width="40" height="42" viewBox="0 0 40 42" fill="none" xmlns="http://www.w3.org/2000/svg" xmlns:xlink="http://www.w3.org/1999/xlink">
<path d="M30.167,19.333C30.167,25.869 24.869,31.167 18.333,31.167L18.333,34.167C26.526,34.167 33.167,27.526 33.167,19.333L30.167,19.333ZM18.333,31.167C11.798,31.167 6.5,25.869 6.5,19.333L3.5,19.333C3.5,27.526 10.141,34.167 18.333,34.167L18.333,31.167ZM6.5,19.333C6.5,12.798 11.798,7.5 18.333,7.5L18.333,4.5C10.141,4.5 3.5,11.141 3.5,19.333L6.5,19.333ZM18.333,7.5C24.869,7.5 30.167,12.798 30.167,19.333L33.167,19.333C33.167,11.141 26.526,4.5 18.333,4.5L18.333,7.5Z" fill="#D38609"/>
<path d="M33.939,37.061C34.525,37.646 35.475,37.646 36.061,37.061C36.646,36.475 36.646,35.525 36.061,34.939L33.939,37.061ZM28.811,27.689C28.225,27.104 27.275,27.104 26.689,27.689C26.104,28.275 26.104,29.225 26.689,29.811L28.811,27.689ZM36.061,34.939L28.811,27.689L26.689,29.811L33.939,37.061L36.061,34.939Z" fill="#D38609"/>
</svg>
