<svg width="48" height="48" viewBox="0 0 48 48" fill="none" xmlns="http://www.w3.org/2000/svg" xmlns:xlink="http://www.w3.org/1999/xlink">
<line x1="5" y1="11.125" x2="41" y2="11.125" stroke="#000000" stroke-width="0.875" stroke-miterlimit="3.999327" stroke-linecap="round" stroke-linejoin="round"/>
<path d="M37,12L37.875,12C37.875,11.517 37.483,11.125 37,11.125L37,12ZM9,40L8.125,40L9,40ZM9,12L9,11.125C8.517,11.125 8.125,11.517 8.125,12L9,12ZM14.125,12C14.125,12.483 14.517,12.875 15,12.875C15.483,12.875 15.875,12.483 15.875,12L14.125,12ZM19,4L19,3.125L19,4ZM27,4L27,3.125L27,4ZM30.125,12C30.125,12.483 30.517,12.875 31,12.875C31.483,12.875 31.875,12.483 31.875,12L30.125,12ZM36.125,12L36.125,40L37.875,40L37.875,12L36.125,12ZM36.125,40C36.125,40.829 35.796,41.624 35.21,42.21L36.447,43.447C37.361,42.533 37.875,41.293 37.875,40L36.125,40ZM35.21,42.21C34.624,42.796 33.829,43.125 33,43.125L33,44.875C34.293,44.875 35.533,44.361 36.447,43.447L35.21,42.21ZM33,43.125L13,43.125L13,44.875L33,44.875L33,43.125ZM13,43.125C12.171,43.125 11.376,42.796 10.79,42.21L9.553,43.447C10.467,44.361 11.707,44.875 13,44.875L13,43.125ZM10.79,42.21C10.204,41.624 9.875,40.829 9.875,40L8.125,40C8.125,41.293 8.639,42.533 9.553,43.447L10.79,42.21ZM9.875,40L9.875,12L8.125,12L8.125,40L9.875,40ZM9,12.875L37,12.875L37,11.125L9,11.125L9,12.875ZM15.875,12L15.875,8L14.125,8L14.125,12L15.875,12ZM15.875,8C15.875,7.171 16.204,6.376 16.79,5.79L15.553,4.553C14.639,5.467 14.125,6.707 14.125,8L15.875,8ZM16.79,5.79C17.376,5.204 18.171,4.875 19,4.875L19,3.125C17.707,3.125 16.467,3.639 15.553,4.553L16.79,5.79ZM19,4.875L27,4.875L27,3.125L19,3.125L19,4.875ZM27,4.875C27.829,4.875 28.624,5.204 29.21,5.79L30.447,4.553C29.533,3.639 28.293,3.125 27,3.125L27,4.875ZM29.21,5.79C29.796,6.376 30.125,7.171 30.125,8L31.875,8C31.875,6.707 31.361,5.467 30.447,4.553L29.21,5.79ZM30.125,8L30.125,12L31.875,12L31.875,8L30.125,8Z" fill="#000000"/>
<line x1="18.125" y1="22" x2="18.125" y2="34" stroke="#000000" stroke-width="0.875" stroke-miterlimit="3.999327" stroke-linecap="round" stroke-linejoin="round"/>
<line x1="26.125" y1="22" x2="26.125" y2="34" stroke="#000000" stroke-width="0.875" stroke-miterlimit="3.999327" stroke-linecap="round" stroke-linejoin="round"/>
</svg>
