<svg width="48" height="48" viewBox="0 0 48 48" fill="none" xmlns="http://www.w3.org/2000/svg" xmlns:xlink="http://www.w3.org/1999/xlink">
<path d="M18.5,42C18.5,42.276 18.276,42.5 18,42.5L18,45.5C19.933,45.5 21.5,43.933 21.5,42L18.5,42ZM18,42.5C17.724,42.5 17.5,42.276 17.5,42L14.5,42C14.5,43.933 16.067,45.5 18,45.5L18,42.5ZM17.5,42C17.5,41.724 17.724,41.5 18,41.5L18,38.5C16.067,38.5 14.5,40.067 14.5,42L17.5,42ZM18,41.5C18.276,41.5 18.5,41.724 18.5,42L21.5,42C21.5,40.067 19.933,38.5 18,38.5L18,41.5Z" fill="#000000"/>
<path d="M40.5,42C40.5,42.276 40.276,42.5 40,42.5L40,45.5C41.933,45.5 43.5,43.933 43.5,42L40.5,42ZM40,42.5C39.724,42.5 39.5,42.276 39.5,42L36.5,42C36.5,43.933 38.067,45.5 40,45.5L40,42.5ZM39.5,42C39.5,41.724 39.724,41.5 40,41.5L40,38.5C38.067,38.5 36.5,40.067 36.5,42L39.5,42ZM40,41.5C40.276,41.5 40.5,41.724 40.5,42L43.5,42C43.5,40.067 41.933,38.5 40,38.5L40,41.5Z" fill="#000000"/>
<path d="M2,0.5C1.172,0.5 0.5,1.172 0.5,2C0.5,2.828 1.172,3.5 2,3.5L2,0.5ZM10,2L11.471,1.706C11.331,1.005 10.715,0.5 10,0.5L10,2ZM15.36,28.78L16.831,28.488L16.831,28.486L15.36,28.78ZM19.36,32L19.36,30.5C19.35,30.5 19.341,30.5 19.331,30.5L19.36,32ZM38.8,32L38.829,30.5C38.819,30.5 38.81,30.5 38.8,30.5L38.8,32ZM42.8,28.78L44.271,29.072L44.273,29.061L42.8,28.78ZM46,12L47.473,12.281C47.557,11.842 47.441,11.388 47.156,11.044C46.871,10.699 46.447,10.5 46,10.5L46,12ZM12,10.5C11.172,10.5 10.5,11.172 10.5,12C10.5,12.828 11.172,13.5 12,13.5L12,10.5ZM2,3.5L10,3.5L10,0.5L2,0.5L2,3.5ZM8.529,2.294L13.889,29.074L16.831,28.486L11.471,1.706L8.529,2.294ZM13.889,29.072C14.14,30.338 14.829,31.476 15.834,32.285L17.716,29.948C17.259,29.58 16.946,29.063 16.831,28.488L13.889,29.072ZM15.834,32.285C16.84,33.094 18.098,33.524 19.389,33.5L19.331,30.5C18.745,30.512 18.173,30.316 17.716,29.948L15.834,32.285ZM19.36,33.5L38.8,33.5L38.8,30.5L19.36,30.5L19.36,33.5ZM38.771,33.5C40.062,33.524 41.32,33.094 42.326,32.285L40.444,29.948C39.987,30.316 39.415,30.512 38.829,30.5L38.771,33.5ZM42.326,32.285C43.331,31.476 44.02,30.338 44.271,29.072L41.329,28.488C41.214,29.063 40.901,29.58 40.444,29.948L42.326,32.285ZM44.273,29.061L47.473,12.281L44.527,11.719L41.327,28.499L44.273,29.061ZM46,10.5L12,10.5L12,13.5L46,13.5L46,10.5Z" fill="#000000"/>
</svg>
