<svg width="48" height="48" viewBox="0 0 48 48" fill="none" xmlns="http://www.w3.org/2000/svg" xmlns:xlink="http://www.w3.org/1999/xlink">
<line x1="6" y1="11.125" x2="42" y2="11.125" stroke="#000000" stroke-width="0.875" stroke-miterlimit="3.999327" stroke-linecap="round" stroke-linejoin="round"/>
<path d="M38,12L38.875,12C38.875,11.517 38.483,11.125 38,11.125L38,12ZM10,40L9.125,40L10,40ZM10,12L10,11.125C9.517,11.125 9.125,11.517 9.125,12L10,12ZM15.125,12C15.125,12.483 15.517,12.875 16,12.875C16.483,12.875 16.875,12.483 16.875,12L15.125,12ZM20,4L20,3.125L20,4ZM28,4L28,3.125L28,4ZM31.125,12C31.125,12.483 31.517,12.875 32,12.875C32.483,12.875 32.875,12.483 32.875,12L31.125,12ZM37.125,12L37.125,40L38.875,40L38.875,12L37.125,12ZM37.125,40C37.125,40.829 36.796,41.624 36.21,42.21L37.447,43.447C38.361,42.533 38.875,41.293 38.875,40L37.125,40ZM36.21,42.21C35.624,42.796 34.829,43.125 34,43.125L34,44.875C35.293,44.875 36.533,44.361 37.447,43.447L36.21,42.21ZM34,43.125L14,43.125L14,44.875L34,44.875L34,43.125ZM14,43.125C13.171,43.125 12.376,42.796 11.79,42.21L10.553,43.447C11.467,44.361 12.707,44.875 14,44.875L14,43.125ZM11.79,42.21C11.204,41.624 10.875,40.829 10.875,40L9.125,40C9.125,41.293 9.639,42.533 10.553,43.447L11.79,42.21ZM10.875,40L10.875,12L9.125,12L9.125,40L10.875,40ZM10,12.875L38,12.875L38,11.125L10,11.125L10,12.875ZM16.875,12L16.875,8L15.125,8L15.125,12L16.875,12ZM16.875,8C16.875,7.171 17.204,6.376 17.79,5.79L16.553,4.553C15.639,5.467 15.125,6.707 15.125,8L16.875,8ZM17.79,5.79C18.376,5.204 19.171,4.875 20,4.875L20,3.125C18.707,3.125 17.467,3.639 16.553,4.553L17.79,5.79ZM20,4.875L28,4.875L28,3.125L20,3.125L20,4.875ZM28,4.875C28.829,4.875 29.624,5.204 30.21,5.79L31.447,4.553C30.533,3.639 29.293,3.125 28,3.125L28,4.875ZM30.21,5.79C30.796,6.376 31.125,7.171 31.125,8L32.875,8C32.875,6.707 32.361,5.467 31.447,4.553L30.21,5.79ZM31.125,8L31.125,12L32.875,12L32.875,8L31.125,8Z" fill="#000000"/>
<line x1="19.125" y1="22" x2="19.125" y2="34" stroke="#000000" stroke-width="0.875" stroke-miterlimit="3.999327" stroke-linecap="round" stroke-linejoin="round"/>
<line x1="27.125" y1="22" x2="27.125" y2="34" stroke="#000000" stroke-width="0.875" stroke-miterlimit="3.999327" stroke-linecap="round" stroke-linejoin="round"/>
</svg>
