<svg width="48" height="50" viewBox="0 0 48 50" fill="none" xmlns="http://www.w3.org/2000/svg" xmlns:xlink="http://www.w3.org/1999/xlink">
<line x1="5" y1="11.5" x2="41" y2="11.5" stroke="#000000" stroke-width="1.5" stroke-miterlimit="3.999327" stroke-linecap="round" stroke-linejoin="round"/>
<path d="M37,13L38.5,13C38.5,12.172 37.828,11.5 37,11.5L37,13ZM9,41L7.5,41L9,41ZM9,13L9,11.5C8.172,11.5 7.5,12.172 7.5,13L9,13ZM13.5,13C13.5,13.828 14.172,14.5 15,14.5C15.828,14.5 16.5,13.828 16.5,13L13.5,13ZM19,5L19,3.5L19,5ZM27,5L27,3.5L27,5ZM29.5,13C29.5,13.828 30.172,14.5 31,14.5C31.828,14.5 32.5,13.828 32.5,13L29.5,13ZM35.5,13L35.5,41L38.5,41L38.5,13L35.5,13ZM35.5,41C35.5,41.663 35.237,42.299 34.768,42.768L36.889,44.889C37.921,43.858 38.5,42.459 38.5,41L35.5,41ZM34.768,42.768C34.299,43.237 33.663,43.5 33,43.5L33,46.5C34.459,46.5 35.858,45.921 36.889,44.889L34.768,42.768ZM33,43.5L13,43.5L13,46.5L33,46.5L33,43.5ZM13,43.5C12.337,43.5 11.701,43.237 11.232,42.768L9.111,44.889C10.142,45.921 11.541,46.5 13,46.5L13,43.5ZM11.232,42.768C10.763,42.299 10.5,41.663 10.5,41L7.5,41C7.5,42.459 8.079,43.858 9.111,44.889L11.232,42.768ZM10.5,41L10.5,13L7.5,13L7.5,41L10.5,41ZM9,14.5L37,14.5L37,11.5L9,11.5L9,14.5ZM16.5,13L16.5,9L13.5,9L13.5,13L16.5,13ZM16.5,9C16.5,8.337 16.763,7.701 17.232,7.232L15.111,5.111C14.079,6.142 13.5,7.541 13.5,9L16.5,9ZM17.232,7.232C17.701,6.763 18.337,6.5 19,6.5L19,3.5C17.541,3.5 16.142,4.079 15.111,5.111L17.232,7.232ZM19,6.5L27,6.5L27,3.5L19,3.5L19,6.5ZM27,6.5C27.663,6.5 28.299,6.763 28.768,7.232L30.889,5.111C29.858,4.079 28.459,3.5 27,3.5L27,6.5ZM28.768,7.232C29.237,7.701 29.5,8.337 29.5,9L32.5,9C32.5,7.541 31.921,6.142 30.889,5.111L28.768,7.232ZM29.5,9L29.5,13L32.5,13L32.5,9L29.5,9Z" fill="#000000"/>
<line x1="17.5" y1="23" x2="17.5" y2="35" stroke="#000000" stroke-width="1.5" stroke-miterlimit="3.999327" stroke-linecap="round" stroke-linejoin="round"/>
<line x1="25.5" y1="23" x2="25.5" y2="35" stroke="#000000" stroke-width="1.5" stroke-miterlimit="3.999327" stroke-linecap="round" stroke-linejoin="round"/>
</svg>
