<svg width="260" height="72" viewBox="0 0 260 72" fill="none" xmlns="http://www.w3.org/2000/svg" xmlns:xlink="http://www.w3.org/1999/xlink">
<path d="M0,0L224,0C235.182,0 240.774,0 245.184,1.827C251.066,4.263 255.738,8.935 258.174,14.816C260,19.226 260,24.817 260,36L260,36C260,47.183 260,52.774 258.174,57.184C255.738,63.065 251.066,67.737 245.184,70.173C240.774,72 235.182,72 224,72L36,72C24.817,72 19.226,72 14.816,70.173C8.935,67.737 4.263,63.065 1.827,57.184C0,52.774 0,47.183 0,36L0,0Z" transform="rotate(360 130 36)" fill="#D38609"/>
</svg>
