<svg width="360" height="72" viewBox="0 0 360 72" fill="none" xmlns="http://www.w3.org/2000/svg" xmlns:xlink="http://www.w3.org/1999/xlink">
<path d="M0,0L324,0C335.182,0 340.774,0 345.184,1.827C351.066,4.263 355.738,8.935 358.174,14.816C360,19.226 360,24.817 360,36L360,36C360,47.183 360,52.774 358.174,57.184C355.738,63.065 351.066,67.737 345.184,70.173C340.774,72 335.182,72 324,72L36,72C24.817,72 19.226,72 14.816,70.173C8.935,67.737 4.263,63.065 1.827,57.184C0,52.774 0,47.183 0,36L0,0Z" fill="#FFFFFF"/>
</svg>
