<svg width="374" height="72" viewBox="0 0 374 72" fill="none" xmlns="http://www.w3.org/2000/svg" xmlns:xlink="http://www.w3.org/1999/xlink">
<path d="M0,0L338,0C349.182,0 354.774,0 359.184,1.827C365.066,4.263 369.738,8.935 372.174,14.816C374,19.226 374,24.817 374,36L374,36C374,47.183 374,52.774 372.174,57.184C369.738,63.065 365.066,67.737 359.184,70.173C354.774,72 349.182,72 338,72L36,72C24.817,72 19.226,72 14.816,70.173C8.935,67.737 4.263,63.065 1.827,57.184C0,52.774 0,47.183 0,36L0,0Z" transform="rotate(360 187 36)" fill="#D38609"/>
</svg>
