<svg width="262" height="72" viewBox="0 0 262 72" fill="none" xmlns="http://www.w3.org/2000/svg" xmlns:xlink="http://www.w3.org/1999/xlink">
<path d="M0,0L226,0C237.182,0 242.774,0 247.184,1.827C253.066,4.263 257.738,8.935 260.174,14.816C262,19.226 262,24.817 262,36L262,36C262,47.183 262,52.774 260.174,57.184C257.738,63.065 253.066,67.737 247.184,70.173C242.774,72 237.182,72 226,72L36,72C24.817,72 19.226,72 14.816,70.173C8.935,67.737 4.263,63.065 1.827,57.184C0,52.774 0,47.183 0,36L0,0Z" fill="#FFFFFF"/>
</svg>
