<svg width="18" height="10" viewBox="0 0 18 10" fill="none" xmlns="http://www.w3.org/2000/svg" xmlns:xlink="http://www.w3.org/1999/xlink">
<path d="M15.849,1.349C16.317,0.88 16.317,0.12 15.849,-0.349C15.38,-0.817 14.62,-0.817 14.151,-0.349L15.849,1.349ZM8,7.5L7.151,8.349C7.62,8.817 8.38,8.817 8.849,8.349L8,7.5ZM1.849,-0.349C1.38,-0.817 0.62,-0.817 0.151,-0.349C-0.317,0.12 -0.317,0.88 0.151,1.349L1.849,-0.349ZM14.151,-0.349L7.151,6.651L8.849,8.349L15.849,1.349L14.151,-0.349ZM8.849,6.651L1.849,-0.349L0.151,1.349L7.151,8.349L8.849,6.651Z" fill="#200E32"/>
</svg>
