<svg width="72" height="76" viewBox="0 0 72 76" fill="none" xmlns="http://www.w3.org/2000/svg" xmlns:xlink="http://www.w3.org/1999/xlink">
<path d="M36,0.667C40.774,0.667 45.352,2.633 48.728,6.134C52.104,9.635 54,14.383 54,19.333C54,24.284 52.104,29.032 48.728,32.533C45.352,36.033 40.774,38 36,38C31.226,38 26.648,36.033 23.272,32.533C19.896,29.032 18,24.284 18,19.333C18,14.383 19.896,9.635 23.272,6.134C26.648,2.633 31.226,0.667 36,0.667ZM36,47.333C55.89,47.333 72,55.687 72,66L72,75.333L0,75.333L0,66C0,55.687 16.11,47.333 36,47.333Z" fill="#000000"/>
</svg>
