<svg width="16" height="28" viewBox="0 0 16 28" fill="none" xmlns="http://www.w3.org/2000/svg" xmlns:xlink="http://www.w3.org/1999/xlink">
<path d="M11.939,26.061C12.525,26.646 13.475,26.646 14.061,26.061C14.646,25.475 14.646,24.525 14.061,23.939L11.939,26.061ZM1,13L-0.061,11.939C-0.646,12.525 -0.646,13.475 -0.061,14.061L1,13ZM14.061,2.061C14.646,1.475 14.646,0.525 14.061,-0.061C13.475,-0.646 12.525,-0.646 11.939,-0.061L14.061,2.061ZM14.061,23.939L2.061,11.939L-0.061,14.061L11.939,26.061L14.061,23.939ZM2.061,14.061L14.061,2.061L11.939,-0.061L-0.061,11.939L2.061,14.061Z" fill="#000000"/>
</svg>
