<svg width="16" height="28" viewBox="0 0 16 28" fill="none" xmlns="http://www.w3.org/2000/svg" xmlns:xlink="http://www.w3.org/1999/xlink">
<path d="M-0.311,25.439C-0.896,26.025 -0.896,26.975 -0.311,27.561C0.275,28.146 1.225,28.146 1.811,27.561L-0.311,25.439ZM13.25,14L14.311,15.061C14.896,14.475 14.896,13.525 14.311,12.939L13.25,14ZM1.811,0.439C1.225,-0.146 0.275,-0.146 -0.311,0.439C-0.896,1.025 -0.896,1.975 -0.311,2.561L1.811,0.439ZM1.811,27.561L14.311,15.061L12.189,12.939L-0.311,25.439L1.811,27.561ZM14.311,12.939L1.811,0.439L-0.311,2.561L12.189,15.061L14.311,12.939Z" fill="#FFFFFF"/>
</svg>
