<svg width="72" height="76" viewBox="0 0 72 76" fill="none" xmlns="http://www.w3.org/2000/svg" xmlns:xlink="http://www.w3.org/1999/xlink">
<path d="M36,0C40.774,0 45.352,1.967 48.728,5.467C52.104,8.968 54,13.716 54,18.667C54,23.617 52.104,28.365 48.728,31.866C45.352,35.367 40.774,37.333 36,37.333C31.226,37.333 26.648,35.367 23.272,31.866C19.896,28.365 18,23.617 18,18.667C18,13.716 19.896,8.968 23.272,5.467C26.648,1.967 31.226,0 36,0ZM36,46.667C55.89,46.667 72,55.02 72,65.333L72,74.667L0,74.667L0,65.333C0,55.02 16.11,46.667 36,46.667Z" fill="#000000"/>
</svg>
