<svg width="16" height="28" viewBox="0 0 16 28" fill="none" xmlns="http://www.w3.org/2000/svg" xmlns:xlink="http://www.w3.org/1999/xlink">
<path d="M12.939,26.061C13.525,26.646 14.475,26.646 15.061,26.061C15.646,25.475 15.646,24.525 15.061,23.939L12.939,26.061ZM2,13L0.939,11.939C0.354,12.525 0.354,13.475 0.939,14.061L2,13ZM15.061,2.061C15.646,1.475 15.646,0.525 15.061,-0.061C14.475,-0.646 13.525,-0.646 12.939,-0.061L15.061,2.061ZM15.061,23.939L3.061,11.939L0.939,14.061L12.939,26.061L15.061,23.939ZM3.061,14.061L15.061,2.061L12.939,-0.061L0.939,11.939L3.061,14.061Z" fill="#000000"/>
</svg>
