<svg width="16" height="28" viewBox="0 0 16 28" fill="none" xmlns="http://www.w3.org/2000/svg" xmlns:xlink="http://www.w3.org/1999/xlink">
<path d="M11.939,27.061C12.525,27.646 13.475,27.646 14.061,27.061C14.646,26.475 14.646,25.525 14.061,24.939L11.939,27.061ZM1,14L-0.061,12.939C-0.646,13.525 -0.646,14.475 -0.061,15.061L1,14ZM14.061,3.061C14.646,2.475 14.646,1.525 14.061,0.939C13.475,0.354 12.525,0.354 11.939,0.939L14.061,3.061ZM14.061,24.939L2.061,12.939L-0.061,15.061L11.939,27.061L14.061,24.939ZM2.061,15.061L14.061,3.061L11.939,0.939L-0.061,12.939L2.061,15.061Z" fill="#000000"/>
</svg>
